<?xml version="1.0" encoding="UTF-8" standalone="no"?>
<!DOCTYPE svg PUBLIC "-//W3C//DTD SVG 1.1//EN" "http://www.w3.org/Graphics/SVG/1.1/DTD/svg11.dtd">
<svg width="100%" height="100%" viewBox="0 0 119 102" version="1.1" xmlns="http://www.w3.org/2000/svg" xmlns:xlink="http://www.w3.org/1999/xlink" xml:space="preserve" xmlns:serif="http://www.serif.com/" style="fill-rule:evenodd;clip-rule:evenodd;stroke-linejoin:round;stroke-miterlimit:2;">
    <g transform="matrix(1,0,0,1,-2016.25,-383.117)">
        <g transform="matrix(4.16667,0,0,4.16667,0,0)">
            <path d="M485.667,97.52L510.596,97.52L510.596,114.57L485.667,114.57L485.667,97.52ZM497.009,93.715L502.55,93.715L502.55,95.75L497.009,95.75L497.009,93.715ZM484.783,116.34L511.48,116.34C511.968,116.34 512.364,115.943 512.364,115.455L512.364,96.635C512.364,96.147 511.968,95.75 511.48,95.75L504.318,95.75L504.318,92.831C504.318,92.342 503.922,91.948 503.434,91.948L496.125,91.948C495.636,91.948 495.241,92.342 495.241,92.831L495.241,95.75L492.03,95.75L492.03,95.411C492.03,94.922 491.634,94.526 491.146,94.526L488.67,94.526C488.182,94.526 487.786,94.922 487.786,95.411L487.786,95.75L484.783,95.75C484.295,95.75 483.899,96.147 483.899,96.635L483.899,115.455C483.899,115.943 484.295,116.34 484.783,116.34Z" style="fill:white;fill-rule:nonzero;"/>
            <path d="M502.06,111.168C499.275,111.168 497.009,108.902 497.009,106.117C497.009,103.332 499.275,101.064 502.06,101.064C504.845,101.064 507.111,103.332 507.111,106.117C507.111,108.902 504.845,111.168 502.06,111.168ZM502.06,99.297C498.3,99.297 495.241,102.355 495.241,106.117C495.241,109.877 498.3,112.936 502.06,112.936C505.82,112.936 508.879,109.877 508.879,106.117C508.879,102.355 505.82,99.297 502.06,99.297Z" style="fill:white;fill-rule:nonzero;"/>
            <path d="M502.06,107.984C501.03,107.984 500.192,107.146 500.192,106.117C500.192,105.086 501.03,104.248 502.06,104.248C503.089,104.248 503.927,105.086 503.927,106.117C503.927,107.146 503.089,107.984 502.06,107.984ZM502.06,102.48C500.055,102.48 498.424,104.111 498.424,106.117C498.424,108.121 500.055,109.754 502.06,109.754C504.065,109.754 505.696,108.121 505.696,106.117C505.696,104.111 504.065,102.48 502.06,102.48Z" style="fill:white;fill-rule:nonzero;"/>
            <path d="M491.677,101.412L488.493,101.412L488.493,100.193L491.677,100.193L491.677,101.412ZM492.561,98.424L487.609,98.424C487.121,98.424 486.725,98.821 486.725,99.309L486.725,102.295C486.725,102.783 487.121,103.18 487.609,103.18L492.561,103.18C493.049,103.18 493.445,102.783 493.445,102.295L493.445,99.309C493.445,98.821 493.049,98.424 492.561,98.424Z" style="fill:white;fill-rule:nonzero;"/>
        </g>
    </g>
</svg>
