<?xml version="1.0" encoding="UTF-8" standalone="no"?>
<!DOCTYPE svg PUBLIC "-//W3C//DTD SVG 1.1//EN" "http://www.w3.org/Graphics/SVG/1.1/DTD/svg11.dtd">
<svg width="100%" height="100%" viewBox="0 0 135 111" version="1.1" xmlns="http://www.w3.org/2000/svg" xmlns:xlink="http://www.w3.org/1999/xlink" xml:space="preserve" xmlns:serif="http://www.serif.com/" style="fill-rule:evenodd;clip-rule:evenodd;stroke-linejoin:round;stroke-miterlimit:2;">
    <g transform="matrix(1,0,0,1,-1476.41,-1177.59)">
        <g transform="matrix(4.16667,0,0,4.16667,0,0)">
            <path d="M385.482,290.35L382.416,293.416C382.423,293.659 382.416,293.897 382.395,294.131C382.368,294.416 382.32,294.692 382.253,294.963C381.951,296.182 381.259,297.256 380.335,298.229C379.083,299.545 377.771,300.807 376.485,302.092C375.136,303.441 373.792,304.795 372.433,306.135C372.199,306.363 371.865,306.732 371.382,306.77C371.033,306.797 370.793,306.66 370.56,306.439C370.35,306.24 370.282,305.74 370.363,305.428C370.451,305.088 370.751,304.781 371.013,304.514C371.627,303.885 372.254,303.266 372.875,302.643C373.178,302.34 373.479,302.035 373.777,301.727C374.094,301.398 375.021,300.707 374.501,300.221C374.024,299.773 373.34,300.635 373.053,300.924C372.75,301.229 372.447,301.531 372.14,301.832C370.712,303.226 369.304,304.64 367.841,305.996C367.179,306.609 366.661,306.563 366.209,306.031C365.779,305.527 365.862,305.022 366.484,304.398C368.102,302.778 369.722,301.16 371.34,299.541C371.567,299.313 371.764,299.166 371.805,298.818C371.835,298.561 371.742,298.334 371.478,298.295C371.033,298.229 370.839,298.398 370.553,298.684C368.648,300.588 366.746,302.496 364.837,304.396C364.211,305.02 363.512,305.006 363.054,304.381C362.712,303.914 362.807,303.387 363.364,302.827C365.296,300.887 367.233,298.95 369.174,297.019C369.49,296.704 369.738,296.351 369.351,295.988C368.98,295.641 368.66,295.947 368.377,296.231C366.888,297.727 365.396,299.219 363.9,300.707C363.702,300.904 363.492,301.107 363.25,301.24C362.701,301.543 362.01,301.268 361.777,300.686C361.539,300.09 361.845,299.712 362.224,299.336C364.699,296.867 367.176,294.4 369.629,291.91L370.644,292.93C370.989,293.276 371.443,293.45 371.898,293.45C372.349,293.45 372.801,293.279 373.146,292.936L373.341,292.742C373.675,292.409 373.86,291.965 373.861,291.491C373.862,291.047 373.696,290.631 373.401,290.305L371.152,288.033L370.71,287.59L371.311,286.986C372.24,286.277 373.07,286.029 373.753,285.996C375.005,285.883 376.113,286.537 376.113,286.537L376.778,285.871L378.891,283.759L385.482,290.35ZM379.18,302.197C378.947,302.779 378.256,303.054 377.708,302.752C377.654,302.723 377.603,302.689 377.552,302.653C378.046,302.164 378.536,301.67 379.028,301.177C379.241,301.459 379.35,301.772 379.18,302.197ZM377.903,305.894C377.445,306.518 376.746,306.531 376.12,305.908C375.808,305.598 375.498,305.285 375.187,304.975C375.7,304.475 376.215,303.976 376.726,303.473C377.015,303.762 377.305,304.049 377.594,304.339C378.15,304.898 378.245,305.426 377.903,305.894ZM374.749,307.543C374.296,308.074 373.778,308.121 373.116,307.508C373.014,307.412 372.913,307.315 372.81,307.22C372.956,307.125 373.094,307.018 373.222,306.894C373.601,306.527 373.975,306.156 374.352,305.79C374.393,305.83 374.433,305.87 374.473,305.91C375.096,306.534 375.178,307.039 374.749,307.543ZM370.398,307.951C370.164,308.173 369.924,308.309 369.575,308.281C369.093,308.244 368.758,307.877 368.524,307.646C368.382,307.506 368.241,307.363 368.098,307.222C368.433,307.041 368.786,306.793 369.167,306.473C369.402,306.846 369.479,307.063 369.938,307.325C370.144,307.443 370.36,307.53 370.582,307.589C370.544,307.737 370.483,307.869 370.398,307.951ZM360.61,299.728C359.693,298.759 359.005,297.688 358.704,296.475C358.637,296.204 358.589,295.927 358.563,295.642C358.541,295.408 358.533,295.171 358.541,294.928L355.475,291.861L362.066,285.271L364.18,287.383L364.319,287.523L364.31,287.545L365.331,287.63L365.397,287.465C365.8,287.19 367.471,286.264 369.702,287.964L372.654,290.929C372.802,291.078 372.883,291.277 372.882,291.488C372.882,291.701 372.8,291.9 372.651,292.048L372.456,292.242C372.146,292.551 371.645,292.549 371.337,292.24L368.317,289.206L367.583,289.719L368.4,290.676L368.754,291.031C368.407,291.379 368.06,291.726 367.713,292.072C367.626,292.159 367.578,292.254 367.553,292.348C367.536,292.365 367.519,292.385 367.501,292.402C365.473,294.434 363.437,296.46 361.412,298.497C361.007,298.904 360.74,299.316 360.61,299.728ZM375.896,285.371C375.757,285.352 375.619,285.338 375.481,285.328C374.497,284.93 372.745,284.648 370.689,286.23L370.641,286.272L369.966,286.95C367.426,285.227 365.41,286.289 364.843,286.664L362.313,284.133L354.338,292.108L357.361,295.131C357.384,296.486 357.866,297.875 358.802,299.279C359.188,299.857 359.638,300.391 360.125,300.885C360.749,301.517 361.38,302.141 362.008,302.768C361.328,303.759 361.619,304.579 362.329,305.318C363.064,306.084 363.742,306.174 364.739,305.885C364.749,305.883 364.758,305.886 364.763,305.894C365.479,306.965 366.139,307.484 366.851,307.541C367.146,307.828 367.438,308.119 367.735,308.405C368.616,309.255 369.958,309.444 371.02,308.837C371.478,308.574 371.556,308.357 371.791,307.984C373.585,309.492 374.783,309.519 376.194,307.405C376.199,307.397 376.209,307.395 376.218,307.396C377.215,307.686 377.893,307.596 378.628,306.829C379.378,306.049 379.664,305.178 378.826,304.109C378.82,304.102 378.604,303.82 378.614,303.82C379.21,303.84 379.684,303.459 379.945,303.122C380.639,302.225 380.597,301.281 379.852,300.354C380.177,300.025 380.507,299.701 380.832,299.373C381.319,298.879 381.77,298.346 382.155,297.768C383.091,296.363 383.573,294.975 383.597,293.619L386.619,290.597L378.645,282.621L375.896,285.371Z" style="fill:white;fill-rule:nonzero;"/>
        </g>
    </g>
</svg>
