<?xml version="1.0" encoding="UTF-8" standalone="no"?>
<!DOCTYPE svg PUBLIC "-//W3C//DTD SVG 1.1//EN" "http://www.w3.org/Graphics/SVG/1.1/DTD/svg11.dtd">
<svg width="100%" height="100%" viewBox="0 0 120 133" version="1.1" xmlns="http://www.w3.org/2000/svg" xmlns:xlink="http://www.w3.org/1999/xlink" xml:space="preserve" xmlns:serif="http://www.serif.com/" style="fill-rule:evenodd;clip-rule:evenodd;stroke-linejoin:round;stroke-miterlimit:2;">
    <g transform="matrix(1,0,0,1,-1483.89,-1997.4)">
        <g transform="matrix(4.16667,0,0,4.16667,0,0)">
            <path d="M365.248,494.076C369.629,494.076 373.194,497.641 373.194,502.021C373.194,506.404 369.629,509.969 365.248,509.969C360.866,509.969 357.302,506.404 357.302,502.021C357.302,497.641 360.866,494.076 365.248,494.076ZM375.49,493.477C376.23,493.477 381.436,493.428 383.734,492.158L383.734,494.605C383.733,494.627 383.732,494.65 383.732,494.67C383.732,494.68 383.733,494.689 383.734,494.701C383.681,495.723 380.003,496.551 375.49,496.551C374.406,496.551 373.373,496.502 372.424,496.414C371.148,494.785 369.33,493.6 367.244,493.131L367.243,492.156C369.541,493.428 374.749,493.477 375.49,493.477ZM375.49,484.889C376.23,484.889 381.436,484.842 383.734,483.572L383.734,486.018C383.733,486.041 383.732,486.064 383.732,486.084C383.732,486.094 383.733,486.104 383.734,486.115C383.681,487.137 380.003,487.965 375.49,487.965C370.975,487.965 367.297,487.137 367.245,486.113C367.247,486.094 367.247,486.074 367.247,486.057C367.247,486.045 367.246,486.031 367.245,486.018L367.243,483.57C369.541,484.842 374.749,484.889 375.49,484.889ZM375.49,480.723C380.17,480.723 383.071,481.592 383.561,482.133C383.071,482.676 380.17,483.545 375.49,483.545C370.809,483.545 367.908,482.676 367.419,482.133C367.909,481.592 370.809,480.723 375.49,480.723ZM383.734,489.859C383.733,489.883 383.732,489.906 383.732,489.926C383.732,489.936 383.733,489.945 383.734,489.955C383.681,490.979 380.003,491.805 375.49,491.805C370.975,491.805 367.297,490.979 367.245,489.955C367.247,489.936 367.247,489.914 367.247,489.898C367.247,489.887 367.246,489.873 367.245,489.859L367.243,487.725C369.205,488.965 373.391,489.131 375.49,489.131C377.588,489.131 381.771,488.965 383.734,487.727L383.734,489.859ZM383.734,498.445C383.733,498.469 383.732,498.492 383.732,498.512C383.732,498.521 383.733,498.531 383.734,498.543C383.681,499.564 380.003,500.393 375.49,500.393C375.053,500.393 374.627,500.381 374.208,500.367C374.03,499.4 373.701,498.486 373.244,497.652C374.097,497.703 374.882,497.719 375.49,497.719C377.588,497.719 381.771,497.551 383.734,496.313L383.734,498.445ZM383.734,501.947C383.733,501.969 383.732,501.992 383.732,502.012C383.732,502.021 383.733,502.031 383.734,502.043C383.681,503.064 380.003,503.893 375.49,503.893C375.041,503.893 374.604,503.881 374.174,503.865C374.297,503.27 374.361,502.654 374.361,502.021C374.361,501.861 374.357,501.701 374.349,501.543C374.769,501.555 375.157,501.559 375.49,501.559C377.588,501.559 381.771,501.393 383.734,500.154L383.734,501.947ZM365.248,511.137C369.221,511.137 372.606,508.58 373.851,505.025C374.467,505.051 375.029,505.059 375.49,505.059C378.288,505.059 384.797,504.764 384.797,502.02C384.797,502.012 384.797,502.004 384.796,501.996C384.797,501.988 384.797,501.982 384.797,501.975L384.797,498.314C384.814,498.232 384.824,498.148 384.824,498.063C384.824,497.98 384.813,497.902 384.797,497.826L384.797,494.813C384.814,494.73 384.824,494.648 384.824,494.561C384.824,494.48 384.813,494.4 384.797,494.324L384.797,490.971C384.814,490.891 384.824,490.807 384.824,490.721C384.824,490.576 384.794,490.441 384.749,490.313C384.778,490.191 384.797,490.066 384.797,489.934C384.797,489.926 384.797,489.918 384.796,489.91C384.797,489.902 384.797,489.895 384.797,489.889L384.797,486.227C384.814,486.145 384.824,486.063 384.824,485.975C384.824,485.893 384.813,485.816 384.797,485.738L384.797,482.385C384.814,482.305 384.824,482.221 384.824,482.133C384.824,481.984 384.793,481.844 384.744,481.711C384.663,481.43 384.487,481.193 384.253,481.047C382.352,479.434 376.293,479.377 375.49,479.377C374.686,479.377 368.628,479.434 366.727,481.047C366.492,481.193 366.316,481.428 366.235,481.709C366.186,481.844 366.156,481.984 366.156,482.133C366.156,482.221 366.166,482.305 366.182,482.385L366.182,485.738C366.166,485.814 366.156,485.893 366.156,485.975C366.156,486.063 366.166,486.145 366.182,486.227L366.182,489.889C366.182,489.896 366.182,489.904 366.183,489.912C366.182,489.92 366.182,489.928 366.182,489.934C366.182,490.066 366.202,490.191 366.231,490.313C366.185,490.441 366.156,490.576 366.156,490.721C366.156,490.807 366.166,490.891 366.182,490.971L366.182,492.955C365.875,492.924 365.563,492.908 365.248,492.908C360.222,492.908 356.134,496.996 356.134,502.021C356.134,507.047 360.222,511.137 365.248,511.137Z" style="fill:white;fill-rule:nonzero;"/>
        </g>
    </g>
</svg>
