<?xml version="1.0" encoding="UTF-8" standalone="no"?>
<!DOCTYPE svg PUBLIC "-//W3C//DTD SVG 1.1//EN" "http://www.w3.org/Graphics/SVG/1.1/DTD/svg11.dtd">
<svg width="100%" height="100%" viewBox="0 0 160 152" version="1.1" xmlns="http://www.w3.org/2000/svg" xmlns:xlink="http://www.w3.org/1999/xlink" xml:space="preserve" xmlns:serif="http://www.serif.com/" style="fill-rule:evenodd;clip-rule:evenodd;stroke-linejoin:round;stroke-miterlimit:2;">
    <g transform="matrix(1,0,0,1,-1995.6,-2528.81)">
        <g transform="matrix(4.16667,0,0,4.16667,0,0)">
            <path d="M513.271,639.418L513.271,640.727C513.271,641.037 513.524,641.289 513.835,641.289L516.192,641.289L516.192,642.033L489.748,642.033L489.748,641.289L492.105,641.289C492.417,641.289 492.669,641.037 492.669,640.727L492.669,639.418L494.024,639.418C494.335,639.418 494.587,639.166 494.587,638.855L494.571,636.998L511.354,636.995L511.354,638.855C511.354,639.166 511.606,639.418 511.917,639.418L513.271,639.418ZM512.156,636.197C512.156,636.197 512.154,636.195 512.153,636.195C511.942,635.986 511.664,635.871 511.37,635.871L494.571,635.871C494.28,635.871 493.994,635.99 493.786,636.197C493.579,636.403 493.46,636.689 493.46,636.982L493.46,638.291L492.105,638.291C491.794,638.291 491.542,638.544 491.542,638.855L491.542,640.163L489.184,640.163C488.874,640.163 488.621,640.416 488.621,640.727L488.621,642.598C488.621,642.908 488.874,643.16 489.184,643.16L516.755,643.16C517.067,643.16 517.318,642.908 517.318,642.598L517.318,640.727C517.318,640.416 517.067,640.163 516.755,640.163L514.398,640.163L514.398,638.855C514.398,638.544 514.146,638.291 513.835,638.291L512.481,638.291L512.481,636.982C512.481,636.687 512.366,636.408 512.156,636.197Z" style="fill:white;fill-rule:nonzero;"/>
            <path d="M495.304,621.98L481.907,633.066L480.128,630.779L494.178,620.521L495.325,619.684L496.404,621.07L495.304,621.98ZM493.479,615.476L497.635,612.242L498.986,611.191L505.352,619.377L499.846,623.66L493.479,615.476ZM492.339,614.934L492.255,615C491.756,615.389 491.032,615.299 490.644,614.799C490.255,614.299 490.345,613.576 490.845,613.188L497.148,608.285C497.352,608.127 497.597,608.043 497.851,608.043C497.899,608.043 497.947,608.045 497.996,608.051C498.3,608.089 498.572,608.243 498.76,608.486C499.108,608.934 499.069,609.58 498.667,609.99L498.642,610.016C498.615,610.043 498.59,610.072 498.559,610.097L492.339,614.934ZM506.409,620C506.41,619.998 506.438,619.982 506.439,619.981L506.44,619.98C506.622,619.875 506.821,619.824 507.019,619.824C507.362,619.824 507.699,619.978 507.92,620.263C508.309,620.762 508.219,621.484 507.719,621.873L501.416,626.776C500.916,627.166 500.193,627.074 499.804,626.575C499.416,626.075 499.506,625.352 500.005,624.964L506.309,620.061C506.341,620.035 506.375,620.018 506.409,620ZM498.985,624.388C498.294,625.191 498.24,626.398 498.915,627.268C499.363,627.843 500.035,628.145 500.713,628.145C501.202,628.145 501.693,627.988 502.108,627.666L508.411,622.763C508.89,622.389 509.196,621.852 509.272,621.25C509.347,620.646 509.183,620.051 508.81,619.57C508.222,618.813 507.224,618.526 506.335,618.806L499.779,610.377C500.267,609.586 500.238,608.551 499.649,607.795C499.276,607.314 498.738,607.008 498.135,606.934C497.531,606.857 496.936,607.021 496.456,607.395L490.153,612.298C489.163,613.068 488.984,614.5 489.755,615.491C490.203,616.066 490.873,616.367 491.552,616.367C491.896,616.367 492.239,616.285 492.559,616.127L494.633,618.793L479.343,629.957C479.13,630.112 478.987,630.352 478.951,630.612C478.939,630.697 478.942,630.782 478.953,630.867C478.974,631.041 479.038,631.211 479.147,631.354L481.11,633.877C481.163,633.943 481.226,634 481.292,634.051C481.433,634.158 481.598,634.229 481.778,634.25C481.813,634.253 481.848,634.255 481.883,634.255C482.111,634.255 482.336,634.175 482.511,634.029L497.097,621.959L498.985,624.388Z" style="fill:white;fill-rule:nonzero;"/>
        </g>
    </g>
</svg>
