<?xml version="1.0" encoding="UTF-8" standalone="no"?>
<!DOCTYPE svg PUBLIC "-//W3C//DTD SVG 1.1//EN" "http://www.w3.org/Graphics/SVG/1.1/DTD/svg11.dtd">
<svg width="100%" height="100%" viewBox="0 0 143 90" version="1.1" xmlns="http://www.w3.org/2000/svg" xmlns:xlink="http://www.w3.org/1999/xlink" xml:space="preserve" xmlns:serif="http://www.serif.com/" style="fill-rule:evenodd;clip-rule:evenodd;stroke-linejoin:round;stroke-miterlimit:2;">
    <g transform="matrix(1,0,0,1,-2536.01,-1188.09)">
        <g transform="matrix(4.16667,0,0,4.16667,0,0)">
            <path d="M609.854,304.877C609.79,304.558 609.849,304.181 610.016,303.839L618.166,287.194C618.341,286.836 618.619,286.551 618.928,286.413L618.964,286.396C618.978,286.388 618.991,286.38 619.004,286.372C619.069,286.345 619.145,286.331 619.23,286.329L619.297,286.329C619.377,286.331 619.451,286.345 619.511,286.368L619.595,286.413C619.903,286.551 620.181,286.836 620.357,287.194L628.506,303.839C628.673,304.181 628.732,304.558 628.668,304.877C628.638,305.029 628.549,305.305 628.299,305.427C627.869,305.638 627.236,305.267 626.917,304.616L623.298,297.224L615.235,297.202L611.604,304.616C611.286,305.267 610.654,305.638 610.223,305.427C609.974,305.305 609.885,305.029 609.854,304.877ZM612.67,305.139L615.974,298.391L622.557,298.408L625.852,305.139C626.318,306.09 627.202,306.669 628.05,306.669C628.315,306.669 628.577,306.612 628.821,306.493C629.337,306.24 629.706,305.736 629.832,305.11C629.948,304.533 629.855,303.896 629.572,303.317L621.422,286.673C621.132,286.081 620.677,285.614 620.135,285.354L620.069,285.319C619.838,285.206 619.583,285.146 619.34,285.144C619.314,285.142 619.29,285.142 619.258,285.142L619.209,285.143C618.938,285.146 618.684,285.206 618.455,285.318C618.433,285.329 618.413,285.341 618.394,285.353C617.849,285.61 617.391,286.078 617.1,286.673L608.95,303.317C608.667,303.896 608.574,304.533 608.69,305.11C608.816,305.736 609.185,306.24 609.701,306.493C610.727,306.995 612.059,306.388 612.67,305.139Z" style="fill:white;fill-rule:nonzero;"/>
            <path d="M619.261,291.677L620.572,294.354L617.953,294.349L619.261,291.677ZM619.261,288.979L616.054,295.53L622.477,295.548L619.261,288.979Z" style="fill:white;fill-rule:nonzero;"/>
            <path d="M641.713,305.024C641.712,305.149 641.588,305.254 641.534,305.294C641.368,305.416 641.141,305.483 640.875,305.485C640.423,305.483 640.076,305.253 640.047,305.046C640.019,304.845 639.889,304.671 639.702,304.587C639.625,304.553 639.542,304.536 639.46,304.536C639.344,304.536 639.229,304.569 639.129,304.636C638.303,305.191 637.339,305.485 636.341,305.485C633.58,305.485 631.334,303.239 631.334,300.478C631.334,297.718 633.58,295.472 636.341,295.472C637.343,295.472 638.31,295.767 639.138,296.325C639.319,296.448 639.554,296.46 639.748,296.358C639.941,296.255 640.063,296.054 640.063,295.836L640.066,294.875C640.066,294.687 640.392,294.416 640.9,294.416L640.904,294.416C641.199,294.416 641.479,294.514 641.636,294.672C641.684,294.72 641.74,294.794 641.74,294.878L641.713,305.024ZM640.907,293.228L640.9,293.228C639.787,293.228 638.91,293.927 638.88,294.827C638.086,294.471 637.225,294.285 636.341,294.285C632.926,294.285 630.147,297.063 630.147,300.478C630.147,303.894 632.926,306.671 636.341,306.671C637.352,306.671 638.334,306.429 639.219,305.963C639.584,306.392 640.192,306.67 640.871,306.671L640.879,306.671C641.384,306.671 641.866,306.522 642.236,306.252C642.657,305.941 642.898,305.496 642.899,305.028L642.927,294.882C642.928,294.5 642.768,294.128 642.477,293.836C642.095,293.45 641.522,293.229 640.907,293.228Z" style="fill:white;fill-rule:nonzero;"/>
            <path d="M636.341,303C634.95,303 633.819,301.868 633.819,300.478C633.819,299.087 634.95,297.956 636.341,297.956C637.731,297.956 638.863,299.087 638.863,300.478C638.863,301.868 637.731,303 636.341,303ZM636.341,296.771C634.296,296.771 632.632,298.433 632.632,300.478C632.632,302.523 634.296,304.187 636.341,304.187C638.386,304.187 640.049,302.523 640.049,300.478C640.049,298.433 638.386,296.771 636.341,296.771Z" style="fill:white;fill-rule:nonzero;"/>
        </g>
    </g>
</svg>
